<svg width="185" height="84" viewBox="0 0 185 84" fill="none" xmlns="http://www.w3.org/2000/svg">
<path d="M2.08 83V44.78H7.02C8.84 44.78 10.3913 44.9707 11.674 45.352C12.974 45.7333 14.0313 46.3313 14.846 47.146C15.678 47.9607 16.2847 49.0093 16.666 50.292C17.0647 51.5747 17.264 53.1173 17.264 54.92C17.264 56.116 17.16 57.1473 16.952 58.014C16.744 58.8807 16.3887 59.6867 15.886 60.432C15.3833 61.1773 14.6727 61.9747 13.754 62.824C15.002 63.5173 15.964 64.6873 16.64 66.334C17.3333 67.9633 17.68 69.9133 17.68 72.184C17.68 73.9 17.4807 75.434 17.082 76.786C16.7007 78.1207 16.1373 79.2473 15.392 80.166C14.664 81.0847 13.7627 81.7867 12.688 82.272C11.6133 82.7573 10.3827 83 8.996 83H2.08ZM7.696 77.436C8.45867 77.436 9.1 77.332 9.62 77.124C10.1573 76.916 10.5907 76.578 10.92 76.11C11.2493 75.642 11.4833 75.0353 11.622 74.29C11.778 73.5447 11.856 72.6347 11.856 71.56C11.856 70.1213 11.7173 68.9773 11.44 68.128C11.18 67.2613 10.7467 66.6373 10.14 66.256C9.53333 65.8747 8.71867 65.684 7.696 65.684V77.436ZM7.696 60.536C8.684 60.536 9.48133 60.3627 10.088 60.016C10.6947 59.6693 11.1367 59.1233 11.414 58.378C11.7087 57.6153 11.856 56.636 11.856 55.44C11.856 53.6373 11.5267 52.3373 10.868 51.54C10.2267 50.7427 9.16933 50.344 7.696 50.344V60.536ZM31.7854 83.416C29.5667 83.416 27.7901 82.6793 26.4554 81.206C25.1207 79.7327 24.4014 77.7133 24.2974 75.148V52.632C24.3841 50.084 25.1034 48.0733 26.4554 46.6C27.8074 45.1093 29.5841 44.364 31.7854 44.364C34.0041 44.364 35.7894 45.1093 37.1414 46.6C38.4934 48.0907 39.2041 50.1013 39.2734 52.632V75.148C39.2041 77.696 38.4934 79.7153 37.1414 81.206C35.7894 82.6793 34.0041 83.416 31.7854 83.416ZM31.7854 77.956C32.3747 77.956 32.8341 77.7047 33.1634 77.202C33.4927 76.6993 33.6574 76.0147 33.6574 75.148V52.632C33.6574 51.748 33.4927 51.0633 33.1634 50.578C32.8341 50.0753 32.3747 49.824 31.7854 49.824C31.1961 49.824 30.7367 50.0753 30.4074 50.578C30.0781 51.0633 29.9134 51.748 29.9134 52.632V75.148C29.9134 76.0147 30.0781 76.6993 30.4074 77.202C30.7367 77.7047 31.1961 77.956 31.7854 77.956ZM50.3762 83L45.2282 44.78H50.4282L52.6642 64.644L52.7682 65.892H53.1842L53.3402 64.644L55.7322 44.78H59.7882L62.1802 64.644L62.3362 65.892H62.7522L62.8562 64.644L65.0922 44.78H70.2922L65.1442 83H60.7762L58.1762 64.904L57.8642 62.668H57.6562L57.3442 64.904L54.7442 83H50.3762ZM76.6289 83V44.78H82.2449V77.8H89.6809V83H76.6289ZM95.6048 83V44.78H101.221V83H95.6048ZM109.046 83V44.78H114.038L119.498 64.696L119.966 66.464H120.278V64.696V44.78H125.426V83H120.434L114.974 63.084L114.506 61.316H114.194V63.084V83H109.046ZM139.441 83.416C138.089 83.416 136.911 83.0693 135.905 82.376C134.9 81.6653 134.12 80.6947 133.565 79.464C133.028 78.216 132.785 76.7773 132.837 75.148V52.632C132.924 50.084 133.643 48.0733 134.995 46.6C136.347 45.1093 138.124 44.364 140.325 44.364C142.544 44.364 144.329 45.1093 145.681 46.6C147.033 48.0907 147.744 50.1013 147.813 52.632V58.508H142.197V52.632C142.197 51.748 142.033 51.0633 141.703 50.578C141.374 50.0753 140.915 49.824 140.325 49.824C139.736 49.824 139.277 50.0753 138.947 50.578C138.618 51.0633 138.453 51.748 138.453 52.632V75.616C138.453 76.4827 138.618 77.1673 138.947 77.67C139.277 78.1727 139.736 78.424 140.325 78.424C140.915 78.424 141.374 78.1727 141.703 77.67C142.033 77.1673 142.197 76.4827 142.197 75.616V68.7H139.961V63.968H147.813V83H144.485L143.809 81.18C143.168 81.9773 142.509 82.5493 141.833 82.896C141.157 83.2427 140.36 83.416 139.441 83.416Z" fill="white"/>
<path d="M9.856 33.16C8.61867 33.16 7.22133 33.0533 5.664 32.84C4.81067 32.7333 4.224 32.5093 3.904 32.168C3.584 31.8267 3.44533 31.272 3.488 30.504C3.63733 28.392 3.98933 25.7893 4.544 22.696C5.09867 19.5813 5.77067 16.584 6.56 13.704C6.70933 13.1707 7.008 12.7973 7.456 12.584C7.904 12.3707 8.49067 12.264 9.216 12.264C10.5173 12.264 11.168 12.6267 11.168 13.352C11.168 13.6507 11.104 13.992 10.976 14.376C10.4213 16.0827 9.86667 18.376 9.312 21.256C8.75733 24.1147 8.36267 26.8453 8.128 29.448C8.768 29.512 9.49333 29.544 10.304 29.544C14.0373 29.544 16.8213 28.4133 18.656 26.152C20.512 23.8907 21.44 20.872 21.44 17.096C21.44 14.5573 20.7147 12.5947 19.264 11.208C17.8133 9.82133 15.7653 9.128 13.12 9.128C11.4133 9.128 9.71733 9.39467 8.032 9.928C6.368 10.4613 4.864 11.1653 3.52 12.04C3.24267 12.232 2.944 12.328 2.624 12.328C2.26133 12.328 1.97333 12.1787 1.76 11.88C1.54667 11.56 1.44 11.176 1.44 10.728C1.44 10.216 1.52533 9.8 1.696 9.48C1.86667 9.13867 2.15467 8.82933 2.56 8.552C4.032 7.54933 5.76 6.792 7.744 6.28C9.728 5.74667 11.6373 5.48 13.472 5.48C16.0747 5.48 18.3253 5.93867 20.224 6.856C22.1227 7.752 23.584 9.07467 24.608 10.824C25.632 12.5733 26.144 14.6853 26.144 17.16C26.144 20.3813 25.504 23.1973 24.224 25.608C22.944 27.9973 21.0773 29.8533 18.624 31.176C16.1707 32.4987 13.248 33.16 9.856 33.16ZM31.2375 33.16C30.2775 33.16 29.4882 32.7227 28.8695 31.848C28.2722 30.952 27.9735 29.8427 27.9735 28.52C27.9735 26.92 28.0802 25.4587 28.2935 24.136C28.5068 22.792 28.8588 21.3733 29.3495 19.88C29.5628 19.24 29.8615 18.7813 30.2455 18.504C30.6295 18.2267 31.2375 18.088 32.0695 18.088C32.5388 18.088 32.8588 18.1627 33.0295 18.312C33.2215 18.4613 33.3175 18.6853 33.3175 18.984C33.3175 19.1547 33.2002 19.7307 32.9655 20.712C32.7522 21.5013 32.5815 22.216 32.4535 22.856C32.0268 25.096 31.8135 26.5893 31.8135 27.336C31.8135 27.784 31.8668 28.104 31.9735 28.296C32.0802 28.4667 32.2508 28.552 32.4855 28.552C32.8055 28.552 33.2002 28.232 33.6695 27.592C34.1602 26.952 34.6722 25.9813 35.2055 24.68C35.7602 23.3787 36.2935 21.7787 36.8055 19.88C36.9762 19.24 37.2322 18.7813 37.5735 18.504C37.9362 18.2267 38.4695 18.088 39.1735 18.088C39.6642 18.088 40.0055 18.152 40.1975 18.28C40.3895 18.3867 40.4855 18.6 40.4855 18.92C40.4855 19.4533 40.2188 20.9147 39.6855 23.304C39.0882 26.0347 38.7895 27.72 38.7895 28.36C38.7895 28.7653 38.8748 29.0853 39.0455 29.32C39.2162 29.5333 39.4402 29.64 39.7175 29.64C40.1442 29.64 40.6455 29.384 41.2215 28.872C41.8188 28.3387 42.6082 27.4853 43.5895 26.312C43.8455 26.0133 44.1335 25.864 44.4535 25.864C44.7308 25.864 44.9442 25.992 45.0935 26.248C45.2642 26.504 45.3495 26.856 45.3495 27.304C45.3495 28.1573 45.1468 28.8187 44.7415 29.288C43.8242 30.4187 42.8322 31.3467 41.7655 32.072C40.7202 32.7973 39.5255 33.16 38.1815 33.16C37.1575 33.16 36.4002 32.7653 35.9095 31.976C35.4402 31.1867 35.2055 30.0773 35.2055 28.648C34.8428 30.0987 34.2988 31.2187 33.5735 32.008C32.8482 32.776 32.0695 33.16 31.2375 33.16ZM60.9308 25.864C61.2081 25.864 61.4214 25.992 61.5708 26.248C61.7414 26.504 61.8268 26.856 61.8268 27.304C61.8268 28.1573 61.6241 28.8187 61.2188 29.288C60.3441 30.3547 59.3841 31.272 58.3388 32.04C57.2934 32.7867 56.2588 33.16 55.2348 33.16C53.6134 33.16 52.3761 32.2107 51.5228 30.312C50.6268 31.4427 49.8374 32.2 49.1548 32.584C48.4934 32.968 47.7148 33.16 46.8188 33.16C45.5174 33.16 44.4401 32.68 43.5868 31.72C42.7548 30.7387 42.3388 29.4693 42.3388 27.912C42.3388 26.2053 42.7014 24.6267 43.4268 23.176C44.1521 21.704 45.1441 20.5093 46.4028 19.592C47.6828 18.6533 49.1121 18.0987 50.6908 17.928C51.0961 13.7893 51.8641 10.2587 52.9948 7.336C54.1468 4.392 55.6508 2.92 57.5068 2.92C58.4241 2.92 59.1814 3.336 59.7788 4.168C60.3974 5 60.7068 6.25867 60.7068 7.944C60.7068 10.3333 60.1201 13.128 58.9468 16.328C57.7734 19.528 56.2054 22.8133 54.2428 26.184C54.3281 27.4213 54.5094 28.3067 54.7868 28.84C55.0854 29.3733 55.4588 29.64 55.9068 29.64C56.4828 29.64 57.0694 29.384 57.6667 28.872C58.2641 28.36 59.0641 27.5067 60.0668 26.312C60.3228 26.0133 60.6108 25.864 60.9308 25.864ZM57.1548 6.056C56.7494 6.056 56.3441 6.78133 55.9388 8.232C55.5334 9.66133 55.1814 11.5387 54.8828 13.864C54.6054 16.1893 54.4028 18.6213 54.2748 21.16C56.6641 15.9547 57.8588 11.7733 57.8588 8.616C57.8588 7.80533 57.7841 7.176 57.6348 6.728C57.5068 6.28 57.3468 6.056 57.1548 6.056ZM47.9388 29.928C48.3441 29.928 48.7494 29.768 49.1548 29.448C49.5601 29.1067 50.0721 28.488 50.6908 27.592C50.4774 26.44 50.3708 25.1493 50.3708 23.72C50.3708 23.208 50.3921 22.376 50.4348 21.224C49.2614 21.5867 48.2801 22.376 47.4908 23.592C46.7228 24.7867 46.3388 26.12 46.3388 27.592C46.3388 29.1493 46.8721 29.928 47.9388 29.928ZM70.6795 26.824C70.9568 26.824 71.1702 26.952 71.3195 27.208C71.4902 27.464 71.5755 27.816 71.5755 28.264C71.5755 29.032 71.3942 29.6933 71.0315 30.248C70.4342 31.1653 69.6448 31.88 68.6635 32.392C67.7035 32.904 66.5515 33.16 65.2075 33.16C63.1595 33.16 61.5702 32.552 60.4395 31.336C59.3088 30.0987 58.7435 28.4347 58.7435 26.344C58.7435 24.872 59.0528 23.5067 59.6715 22.248C60.2902 20.968 61.1435 19.9547 62.2315 19.208C63.3408 18.4613 64.5888 18.088 65.9755 18.088C67.2128 18.088 68.2048 18.4613 68.9515 19.208C69.6982 19.9333 70.0715 20.9253 70.0715 22.184C70.0715 23.656 69.5382 24.9253 68.4715 25.992C67.4262 27.0373 65.6342 27.8693 63.0955 28.488C63.6075 29.4693 64.4715 29.96 65.6875 29.96C66.5622 29.96 67.2768 29.7573 67.8315 29.352C68.4075 28.9467 69.0688 28.264 69.8155 27.304C70.0715 26.984 70.3595 26.824 70.6795 26.824ZM65.4315 21.224C64.6422 21.224 63.9702 21.6827 63.4155 22.6C62.8822 23.5173 62.6155 24.6267 62.6155 25.928V25.992C63.8742 25.6933 64.8662 25.2453 65.5915 24.648C66.3168 24.0507 66.6795 23.3573 66.6795 22.568C66.6795 22.1627 66.5622 21.8427 66.3275 21.608C66.1142 21.352 65.8155 21.224 65.4315 21.224ZM74.3293 38.056C73.8599 38.056 73.4866 37.9493 73.2093 37.736C72.9319 37.5227 72.7933 37.1813 72.7933 36.712C72.7933 36.52 72.8253 36.296 72.8893 36.04C73.1239 35.0587 73.2946 34.152 73.4013 33.32C73.5293 32.488 73.5933 31.56 73.5933 30.536C73.5933 29.4693 73.8386 28.648 74.3293 28.072C74.8413 27.496 75.4919 27.208 76.2812 27.208C77.0493 27.208 77.6253 27.4213 78.0093 27.848C78.4146 28.2533 78.6173 28.808 78.6173 29.512C78.6173 30.2587 78.3933 31.2507 77.9453 32.488C77.4973 33.7253 76.9533 34.9307 76.3133 36.104C75.8866 36.8933 75.5453 37.416 75.2893 37.672C75.0546 37.928 74.7346 38.056 74.3293 38.056ZM102.633 25.864C102.91 25.864 103.123 25.992 103.273 26.248C103.443 26.504 103.529 26.856 103.529 27.304C103.529 28.1573 103.326 28.8187 102.921 29.288C102.003 30.4187 101.001 31.3467 99.9128 32.072C98.8461 32.7973 97.6301 33.16 96.2648 33.16C94.3874 33.16 92.9901 32.3067 92.0728 30.6C91.1768 28.8933 90.7288 26.6853 90.7288 23.976C90.7288 21.3733 91.0594 18.408 91.7208 15.08C92.4034 11.752 93.3954 8.89333 94.6968 6.504C96.0194 4.11466 97.5874 2.92 99.4008 2.92C100.425 2.92 101.225 3.4 101.801 4.36C102.398 5.29867 102.697 6.65333 102.697 8.424C102.697 10.9627 101.993 13.9067 100.585 17.256C99.1768 20.6053 97.2674 23.9227 94.8568 27.208C95.0061 28.0827 95.2514 28.712 95.5928 29.096C95.9341 29.4587 96.3821 29.64 96.9368 29.64C97.8114 29.64 98.5794 29.3947 99.2408 28.904C99.9021 28.392 100.745 27.528 101.769 26.312C102.025 26.0133 102.313 25.864 102.633 25.864ZM98.6968 6.088C98.2061 6.088 97.6514 6.97333 97.0328 8.744C96.4141 10.5147 95.8701 12.712 95.4008 15.336C94.9314 17.96 94.6754 20.4773 94.6328 22.888C96.1474 20.392 97.3528 17.896 98.2488 15.4C99.1448 12.8827 99.5928 10.5893 99.5928 8.52C99.5928 6.89867 99.2941 6.088 98.6968 6.088ZM115.214 25.864C115.492 25.864 115.705 25.992 115.854 26.248C116.025 26.504 116.11 26.856 116.11 27.304C116.11 28.1573 115.908 28.8187 115.502 29.288C114.713 30.248 113.593 31.1333 112.142 31.944C110.713 32.7547 109.177 33.16 107.534 33.16C105.294 33.16 103.556 32.552 102.318 31.336C101.081 30.12 100.462 28.456 100.462 26.344C100.462 24.872 100.772 23.5067 101.39 22.248C102.009 20.968 102.862 19.9547 103.95 19.208C105.06 18.4613 106.308 18.088 107.694 18.088C108.932 18.088 109.924 18.4613 110.67 19.208C111.417 19.9333 111.79 20.9253 111.79 22.184C111.79 23.656 111.257 24.9253 110.19 25.992C109.145 27.0373 107.364 27.8693 104.846 28.488C105.38 29.4693 106.393 29.96 107.886 29.96C108.846 29.96 109.934 29.6293 111.15 28.968C112.388 28.2853 113.454 27.4 114.35 26.312C114.606 26.0133 114.894 25.864 115.214 25.864ZM107.15 21.224C106.361 21.224 105.689 21.6827 105.134 22.6C104.601 23.5173 104.334 24.6267 104.334 25.928V25.992C105.593 25.6933 106.585 25.2453 107.31 24.648C108.036 24.0507 108.398 23.3573 108.398 22.568C108.398 22.1627 108.281 21.8427 108.046 21.608C107.833 21.352 107.534 21.224 107.15 21.224ZM118.785 21.128C118.742 22.1947 118.721 23.0267 118.721 23.624C118.721 25.16 118.795 26.3653 118.945 27.24C119.115 28.0933 119.382 28.712 119.745 29.096C120.129 29.4587 120.651 29.64 121.313 29.64C121.654 29.64 122.059 29.5333 122.529 29.32C122.998 29.1067 123.425 28.8293 123.809 28.488C124.043 28.2747 124.278 28.168 124.513 28.168C124.769 28.168 124.971 28.3173 125.121 28.616C125.291 28.8933 125.377 29.2347 125.377 29.64C125.377 30.0453 125.291 30.44 125.121 30.824C124.971 31.208 124.737 31.528 124.417 31.784C123.307 32.7013 122.049 33.16 120.641 33.16C118.614 33.16 117.131 32.3173 116.193 30.632C115.254 28.9253 114.785 26.7067 114.785 23.976C114.785 23.0373 114.817 22.088 114.881 21.128H113.633C112.993 21.128 112.555 21.0107 112.321 20.776C112.107 20.5413 112.001 20.168 112.001 19.656C112.001 18.4613 112.481 17.864 113.441 17.864H115.265C115.627 15.5173 116.182 13.3733 116.929 11.432C117.675 9.49067 118.571 7.944 119.617 6.792C120.683 5.64 121.825 5.064 123.041 5.064C123.937 5.064 124.641 5.45867 125.153 6.248C125.665 7.03733 125.921 8.02933 125.921 9.224C125.921 12.5307 124.534 15.4107 121.761 17.864H125.345C125.686 17.864 125.931 17.9387 126.081 18.088C126.23 18.2373 126.305 18.5147 126.305 18.92C126.305 20.392 125.099 21.128 122.689 21.128H118.785ZM122.177 8.136C121.857 8.136 121.494 8.54133 121.089 9.352C120.705 10.1413 120.331 11.2507 119.969 12.68C119.627 14.088 119.339 15.656 119.105 17.384C120.363 16.296 121.302 15.08 121.921 13.736C122.561 12.3707 122.881 11.1333 122.881 10.024C122.881 8.76533 122.646 8.136 122.177 8.136ZM130.965 13.96C130.495 13.96 130.122 13.8533 129.845 13.64C129.567 13.4267 129.429 13.0853 129.429 12.616C129.429 12.424 129.461 12.2 129.525 11.944C129.759 10.9627 129.93 10.056 130.036 9.224C130.165 8.392 130.229 7.464 130.229 6.44C130.229 5.37333 130.474 4.552 130.965 3.976C131.477 3.4 132.127 3.112 132.917 3.112C133.685 3.112 134.261 3.32533 134.645 3.752C135.05 4.15733 135.253 4.712 135.253 5.416C135.253 6.16267 135.029 7.15467 134.581 8.392C134.133 9.62933 133.589 10.8347 132.949 12.008C132.522 12.7973 132.181 13.32 131.925 13.576C131.69 13.832 131.37 13.96 130.965 13.96ZM140.863 33.864C139.754 33.864 138.9 33.608 138.303 33.096C137.727 32.584 137.439 32.008 137.439 31.368C137.439 30.8133 137.642 30.3333 138.047 29.928C138.452 29.5227 139.05 29.32 139.839 29.32C140.116 29.32 140.436 29.352 140.799 29.416C141.183 29.4587 141.471 29.4907 141.663 29.512C141.642 28.9573 141.514 28.4347 141.279 27.944C141.066 27.4533 140.788 26.984 140.447 26.536C140.106 26.0667 139.786 25.6613 139.487 25.32C138.826 26.5787 138.164 27.624 137.503 28.456C136.863 29.288 136.159 30.0773 135.391 30.824C135.007 31.208 134.602 31.4 134.175 31.4C133.834 31.4 133.556 31.2827 133.343 31.048C133.13 30.792 133.023 30.4827 133.023 30.12C133.023 29.6933 133.172 29.2987 133.471 28.936L133.887 28.424C135.06 26.9733 135.946 25.7787 136.543 24.84C136.927 24.2213 137.311 23.4853 137.695 22.632C138.1 21.7787 138.623 20.616 139.263 19.144C139.668 18.2053 140.511 17.736 141.791 17.736C142.388 17.736 142.804 17.7893 143.039 17.896C143.274 18.0027 143.391 18.1733 143.391 18.408C143.391 18.536 143.348 18.7387 143.263 19.016C143.178 19.2933 143.06 19.5707 142.911 19.848C142.527 20.616 142.335 21.2667 142.335 21.8C142.335 22.12 142.442 22.472 142.655 22.856C142.89 23.24 143.242 23.72 143.711 24.296C144.394 25.192 144.906 25.96 145.247 26.6C145.61 27.2187 145.791 27.9013 145.791 28.648C145.791 29.544 145.578 30.3973 145.151 31.208C144.746 31.9973 144.17 32.6373 143.423 33.128C142.676 33.6187 141.823 33.864 140.863 33.864ZM172.358 25.928C172.635 25.928 172.848 26.0667 172.998 26.344C173.168 26.6 173.253 26.9307 173.253 27.336C173.253 27.8267 173.179 28.2107 173.03 28.488C172.88 28.7653 172.646 29.0107 172.326 29.224C170.491 30.4613 169.147 31.3787 168.294 31.976L166.246 33.352C165.435 37.768 164.368 41.2347 163.046 43.752C161.744 46.2907 160.08 47.56 158.054 47.56C156.966 47.56 156.08 47.2187 155.398 46.536C154.715 45.8747 154.373 45 154.373 43.912C154.373 42.3973 154.971 40.7653 156.166 39.016C157.36 37.288 159.6 35.1547 162.885 32.616L163.078 31.368C162.715 31.944 162.235 32.392 161.638 32.712C161.062 33.0107 160.486 33.16 159.91 33.16C158.587 33.16 157.531 32.68 156.742 31.72C155.952 30.76 155.558 29.5013 155.558 27.944C155.558 26.2373 155.952 24.6267 156.742 23.112C157.531 21.576 158.576 20.3493 159.878 19.432C161.2 18.4933 162.598 18.024 164.07 18.024C164.539 18.024 164.848 18.12 164.998 18.312C165.168 18.4827 165.307 18.8027 165.414 19.272C165.819 19.1867 166.288 19.144 166.822 19.144C167.355 19.144 167.728 19.2293 167.942 19.4C168.176 19.5493 168.294 19.8587 168.294 20.328C168.294 20.584 168.283 20.7867 168.262 20.936C168.176 21.5973 167.91 23.272 167.462 25.96C167.376 26.472 167.28 27.0373 167.174 27.656C167.088 28.2533 166.992 28.8933 166.886 29.576C168.528 28.296 170.107 27.1653 171.622 26.184C171.899 26.0133 172.144 25.928 172.358 25.928ZM161.062 29.928C161.552 29.928 162.022 29.6293 162.47 29.032C162.918 28.4347 163.238 27.5813 163.43 26.472L164.454 21C163.579 21.0213 162.768 21.3627 162.022 22.024C161.275 22.664 160.678 23.5173 160.23 24.584C159.782 25.6507 159.558 26.7813 159.558 27.976C159.558 28.6373 159.686 29.128 159.942 29.448C160.219 29.768 160.592 29.928 161.062 29.928ZM158.406 44.456C158.939 44.456 159.536 43.816 160.198 42.536C160.88 41.256 161.531 39.2187 162.15 36.424C160.507 37.832 159.323 39.1013 158.598 40.232C157.872 41.3627 157.51 42.3547 157.51 43.208C157.51 43.5707 157.574 43.8693 157.702 44.104C157.851 44.3387 158.086 44.456 158.406 44.456ZM176.694 33.16C175.435 33.16 174.358 32.8507 173.462 32.232C172.587 31.592 171.926 30.76 171.478 29.736C171.03 28.712 170.806 27.6133 170.806 26.44C170.806 24.8187 171.105 23.3787 171.702 22.12C172.321 20.84 173.153 19.848 174.198 19.144C175.243 18.4187 176.417 18.056 177.718 18.056C178.977 18.056 180.054 18.376 180.95 19.016C181.846 19.6347 182.518 20.456 182.966 21.48C183.414 22.504 183.638 23.6027 183.638 24.776C183.638 26.3973 183.329 27.848 182.71 29.128C182.091 30.3867 181.249 31.3787 180.182 32.104C179.137 32.808 177.974 33.16 176.694 33.16ZM177.046 29.704C177.771 29.704 178.379 29.3093 178.87 28.52C179.382 27.7307 179.638 26.5787 179.638 25.064C179.638 23.8907 179.425 23.0053 178.998 22.408C178.571 21.8107 178.059 21.512 177.462 21.512C176.694 21.512 176.054 21.9067 175.542 22.696C175.051 23.464 174.806 24.616 174.806 26.152C174.806 27.368 175.019 28.264 175.446 28.84C175.873 29.416 176.406 29.704 177.046 29.704Z" fill="white"/>
</svg>
